<svg xmlns="http://www.w3.org/2000/svg" viewBox="0 0 100 130" width="100%" height="100%">
  <path d="M 54,46 C 40,46 28,54 28,72 C 28,90 40,96 54,96 C 54,96 54,80 54,72 M 54,72 L 54,110 C 54,122 42,126 30,126 C 20,126 16,120 16,116" fill="none" stroke="#231F20" stroke-width="12" stroke-linecap="round" stroke-linejoin="round"/>
  <path d="M 52,38 C 34,38 18,50 18,72 C 18,94 36,102 50,102" fill="none" stroke="#D10074" stroke-width="2.5" stroke-linecap="round"/>
  <polygon points="44,97 56,102 44,107" fill="#D10074" />
  <path d="M 62,54 L 62,110 C 62,126 46,132 30,132" fill="none" stroke="#D10074" stroke-width="2.5" stroke-linecap="round"/>
  <polygon points="36,127 24,132 36,137" fill="#D10074" />
</svg>
